# File generated by ImageToStl.com - Free Image and 3D model conversion tools

mtllib depth_camera.mtl

o obj1
v 0 -0.04699999 0.01951932
v 0 0.04699999 -0.01968461
v 0 -0.04699999 -0.01968461
v 0.03039997 0.04699999 0.01951932
v 0.03039997 -0.04699999 -0.01968461
v 0.03039997 0.04699999 -0.01968461
v 0 0.04699999 0.01951932
v 0.03039997 -0.04699999 0.01951932
v 0.03039997 0.04699999 0.01951932
v 0 -0.04699999 0.01951932
v 0.03039997 -0.04699999 -0.01968461
v 0.03039997 -0.04699999 0.01951932
v 0.03039997 0.04699999 0.01951932
v 0 0.04699999 -0.01968461
v 0 0.04699999 0.01951932
v 0.03039997 0.04699999 -0.01968461
v 0 -0.04699999 -0.01968461
v 0 0.04699999 -0.01968461
v 0 0.04699999 0.01951932
v 0.03039997 -0.04699999 0.01951932
v 0 -0.04699999 0.01951932
v 0 -0.04699999 -0.01968461
v 0.03039997 0.04699999 -0.01968461
v 0.03039997 -0.04699999 -0.01968461
vn -1 0 0
vn 1 0 0
vn 0 0 1
vn 0 -1 0
vn 0 1 0
vn 0 0 -1
vt 0.28162 0.70568
vt 0.56324 0
vt 0.56324 0.70568
vt 0 0.70568
vt 0.28162 0
vt 0.28162 0.70568
vt 0.78162 0.70568
vt 1 0
vt 1 0.70568
vt 0.34486 1
vt 0.34486 0.70568
vt 0.78162 0.70568
vt 0.56324 1
vt 0.78162 0
vt 0.56324 0.70568
vt 0.56324 0
vt 0.28162 0
vt 0 0
vt 0.56324 1
vt 0.78162 1
vt 0.78162 0.70568
usemtl mat0
f 1/1/1 2/2/1 3/3/1
f 4/4/2 5/5/2 6/6/2
f 7/7/3 8/8/3 9/9/3
f 10/3/4 11/10/4 12/11/4
f 13/12/5 14/13/5 15/3/5
f 16/14/6 17/15/6 18/16/6
f 1/1/1 19/17/1 2/2/1
f 4/4/2 20/18/2 5/5/2
f 7/7/3 21/14/3 8/8/3
f 10/3/4 22/19/4 11/10/4
f 13/12/5 23/20/5 14/13/5
f 16/14/6 24/21/6 17/15/6
# Vertices: 24, normals: 6, texture coordinates: 21, faces: 12

