# File generated by ImageToStl.com - Free Image and 3D model conversion tools

mtllib drive.mtl

o obj1
v -0.07779896 0.03741562 0.02500033
v -0.07779896 0.03799951 0.02410364
v -0.1372982 0.041574 0.01722049
v 0 0.03741562 0.02500033
v 0 0.041574 0.01722049
v -0.05459928 0.03799951 0.02410364
v -0.1372982 0.03741562 0.02500033
v -0.1372982 0.0318194 0.0318194
v -0.07779896 0.03181934 0.0318194
v -0.1372982 0.02500033 0.03741562
v -0.07779896 0.02500033 0.03741562
v -0.1372982 0.01722049 0.041574
v -0.07779896 0.01722049 0.041574
v -0.1372982 0.00877893 0.04413473
v -0.07779896 0.00877893 0.04413473
v -0.1372982 0 0.04499942
v -0.07779896 0 0.04499942
v -0.07779896 0 0.04499942
v -0.1372982 0 0.04499942
v -0.1372982 -0.00877893 0.04413473
v -0.07779896 -0.00877893 0.04413473
v -0.1372982 -0.01722049 0.041574
v -0.07779896 -0.01722049 0.041574
v -0.1372982 -0.02500033 0.03741562
v -0.07779896 -0.02500033 0.03741562
v -0.1372982 -0.03181934 0.03181934
v -0.07779896 -0.03181934 0.03181934
v -0.1372982 -0.03741562 0.02500033
v -0.07779896 -0.03741562 0.02500033
v -0.05459928 -0.03741562 0.02500033
v -0.05459928 -0.03799951 0.02410358
v 0 -0.041574 0.01722049
v -0.07779896 -0.03799951 0.02410358
v -0.05459928 0.03741562 0.02500033
v -0.05459928 0.03181934 0.0318194
v 0 0.03181934 0.0318194
v -0.05459928 0.02500033 0.03741562
v 0 0.02500033 0.03741562
v -0.05459928 0.01722049 0.041574
v 0 0.01722049 0.041574
v -0.05459928 0.00877893 0.04413473
v 0 0.00877893 0.04413473
v -0.05459928 0 0.04499942
v 0 0 0.04499942
v 0 0 0.04499942
v -0.05459928 0 0.04499942
v -0.05459928 -0.00877893 0.04413473
v 0 -0.00877893 0.04413473
v -0.05459928 -0.01722049 0.041574
v 0 -0.01722049 0.041574
v -0.05459928 -0.02500033 0.03741562
v 0 -0.02500033 0.03741562
v -0.05459928 -0.0318194 0.03181934
v 0 -0.0318194 0.03181934
v 0 -0.03741562 0.02500033
v -0.1372982 -0.041574 0.01722049
v -0.1372982 -0.04413473 0.00877893
v 0 -0.04413473 0.00877893
v -0.1372982 -0.04499936 0
v 0 -0.04499942 0
v 0 -0.04499942 0
v -0.1372982 -0.04499936 0
v -0.1372982 -0.04413473 -0.00877893
v 0 -0.04413473 -0.00877893
v -0.1372982 -0.041574 -0.01722049
v 0 -0.041574 -0.01722049
v -0.1372982 -0.03741562 -0.02500033
v 0 -0.03741562 -0.02500033
v -0.1372982 -0.03181934 -0.0318194
v 0 -0.03181934 -0.0318194
v -0.1372982 -0.02500027 -0.03741562
v 0 -0.02500033 -0.03741562
v -0.1372982 -0.01722049 -0.041574
v 0 -0.01722049 -0.041574
v -0.1372982 -0.00877893 -0.04413473
v 0 -0.00877893 -0.04413473
v -0.1372982 0 -0.04499942
v 0 0 -0.04499942
v -0.1372982 0.00877893 -0.04413473
v 0 0.00877893 -0.04413473
v 0 0.00877893 -0.04413473
v -0.1372982 0.00877893 -0.04413473
v -0.1372982 0.01722049 -0.041574
v 0 0.01722049 -0.041574
v -0.1372982 0.02500033 -0.03741562
v 0 0.02500033 -0.03741562
v -0.1372982 0.0318194 -0.03181934
v 0 0.03181934 -0.03181934
v -0.1372982 0.03741562 -0.02500033
v 0 0.03741562 -0.02500033
v -0.1372982 0.04157406 -0.01722049
v 0 0.041574 -0.01722049
v -0.1372982 0.04413473 -0.00877893
v 0 0.04413473 -0.00877893
v -0.1372982 0.04499942 0
v 0 0.04499942 0
v -0.1372982 0.04413473 0.00877893
v 0 0.04413473 0.00877893
v 0 0.04413473 0.00877893
v -0.1372982 0.04413473 0.00877893
v -0.1372982 0 -0.04499942
v -0.1372982 -0.00877893 -0.04413473
v -0.1372982 0 0
v -0.1372982 0.00877893 -0.04413473
v -0.1372982 0.0318194 -0.03181934
v -0.1372982 0.02500033 -0.03741562
v -0.1372982 0.01722049 -0.041574
v -0.1372982 0.04413473 -0.00877893
v -0.1372982 0.04157406 -0.01722049
v -0.1372982 0.03741562 -0.02500033
v -0.1372982 0.041574 0.01722049
v -0.1372982 0.04413473 0.00877893
v -0.1372982 0.04499942 0
v -0.1372982 0.02500033 0.03741562
v -0.1372982 0.0318194 0.0318194
v -0.1372982 0.03741562 0.02500033
v -0.1372982 0 0.04499942
v -0.1372982 0.00877893 0.04413473
v -0.1372982 0.01722049 0.041574
v -0.1372982 -0.02500033 0.03741562
v -0.1372982 -0.01722049 0.041574
v -0.1372982 -0.00877893 0.04413473
v -0.1372982 -0.041574 0.01722049
v -0.1372982 -0.03741562 0.02500033
v -0.1372982 -0.03181934 0.03181934
v -0.1372982 -0.04413473 -0.00877893
v -0.1372982 -0.04499936 0
v -0.1372982 -0.04413473 0.00877893
v -0.1372982 -0.03181934 -0.0318194
v -0.1372982 -0.03741562 -0.02500033
v -0.1372982 -0.041574 -0.01722049
v -0.1372982 -0.01722049 -0.041574
v -0.1372982 -0.02500027 -0.03741562
v 0 0 -0.04499942
v 0 0.00877893 -0.04413473
v 0 0 0
v 0 -0.00877893 -0.04413473
v 0 -0.03181934 -0.0318194
v 0 -0.02500033 -0.03741562
v 0 -0.01722049 -0.041574
v 0 -0.04413473 -0.00877893
v 0 -0.041574 -0.01722049
v 0 -0.03741562 -0.02500033
v 0 -0.041574 0.01722049
v 0 -0.04413473 0.00877893
v 0 -0.04499942 0
v 0 -0.02500033 0.03741562
v 0 -0.0318194 0.03181934
v 0 -0.03741562 0.02500033
v 0 0 0.04499942
v 0 -0.00877893 0.04413473
v 0 -0.01722049 0.041574
v 0 0.02500033 0.03741562
v 0 0.01722049 0.041574
v 0 0.00877893 0.04413473
v 0 0.041574 0.01722049
v 0 0.03741562 0.02500033
v 0 0.03181934 0.0318194
v 0 0.04413473 -0.00877893
v 0 0.04499942 0
v 0 0.04413473 0.00877893
v 0 0.03181934 -0.03181934
v 0 0.03741562 -0.02500033
v 0 0.041574 -0.01722049
v 0 0.01722049 -0.041574
v 0 0.02500033 -0.03741562
v -0.05459928 -0.03799951 0.04422307
v -0.07779896 -0.03799998 0.04422307
v -0.05459928 0.03799945 0.04422307
v -0.05459928 0.03799951 0.02410364
v -0.07779896 0.03799951 0.04422307
v -0.07779896 0.03799951 0.02410364
v -0.05459928 0.03741562 0.02500033
v -0.05459928 0.03799951 0.02410364
v -0.05459928 0.03799945 0.04422307
v -0.05459928 -0.03799951 0.04422307
v -0.05459928 -0.03799951 0.02410358
v -0.05459928 -0.03741562 0.02500033
v -0.05459928 -0.0318194 0.03181934
v -0.05459928 -0.02500033 0.03741562
v -0.05459928 -0.01722049 0.041574
v -0.05459928 -0.00877893 0.04413473
v -0.05459928 0 0.04499942
v -0.05459928 0.00877893 0.04413473
v -0.05459928 0.01722049 0.041574
v -0.05459928 0.02500033 0.03741562
v -0.05459928 0.03181934 0.0318194
v -0.07779896 0.03181934 0.0318194
v -0.07779896 0.03799951 0.04422307
v -0.07779896 0.03741562 0.02500033
v -0.07779896 0.03799951 0.02410364
v -0.05459928 0.01700925 0.04849898
v -0.07779896 -0.01700985 0.04849898
v -0.05459928 -0.01700985 0.04849898
v -0.07779896 0 0.04499942
v -0.07779896 0.00877893 0.04413473
v -0.07779896 0.02500033 0.03741562
v -0.07779896 0.01722049 0.041574
v -0.07779896 -0.00877893 0.04413473
v -0.07779896 -0.03799998 0.04422307
v -0.07779896 -0.01722049 0.041574
v -0.07779896 -0.02500033 0.03741562
v -0.07779896 -0.03181934 0.03181934
v -0.07779896 -0.03741562 0.02500033
v -0.07779896 -0.03799951 0.02410358
v -0.07779896 0.03799951 0.04422307
v -0.05459928 0.03799945 0.04422307
v -0.07779896 -0.01700985 0.04849898
v -0.05459928 0.01700925 0.04849898
v -0.05459928 -0.01700985 0.04849898
v -0.07779896 -0.01700985 0.04849898
v -0.07779896 0.01700925 0.04849898
v -0.07779896 0.01700925 0.04849898
v -0.05459928 -0.01700985 0.04849898
vn -0.0058 0.8091 0.58764
vn -0.00355 0.92573 0.37818
vn -7E-05 0.92388 0.38268
vn 0.00084 0.83117 0.55602
vn 0.00077 0.92408 0.38219
vn 4E-05 0.9265 0.37629
vn 0 0.83147 0.55557
vn 0 0.70711 0.70711
vn 0 0.70711 0.70711
vn 0 0.55557 0.83147
vn 0 0.55557 0.83147
vn 0 0.38268 0.92388
vn 0 0.19509 0.98079
vn 0 0.19509 0.98079
vn 0 0 1
vn 0 -0.19509 0.98079
vn 0 -0.19509 0.98079
vn 0 -0.38268 0.92388
vn 0 -0.38268 0.92388
vn 0 -0.55557 0.83147
vn 0 -0.70711 0.70711
vn 0 -0.70711 0.70711
vn -0.00077 -0.8312 0.55598
vn 0 -0.80674 0.59091
vn 0.00626 -0.80931 0.58735
vn 0.00389 -0.92566 0.37834
vn 9E-05 -0.92388 0.38268
vn -3E-05 -0.9265 0.37629
vn 0 0.80674 0.59091
vn 0 0.70711 0.70711
vn 0 0.70711 0.70711
vn 0 0.55557 0.83147
vn 0 0.38268 0.92388
vn 0 -0.38268 0.92388
vn 0 -0.55557 0.83147
vn 0 -0.70711 0.70711
vn 0 -0.70711 0.70711
vn 0 -0.83147 0.55557
vn -0.00071 -0.92407 0.38223
vn 0 -0.98079 0.19509
vn 0 -0.98079 0.19509
vn 0 -1 0
vn 0 -0.98079 -0.19509
vn 0 -0.92388 -0.38268
vn 0 -0.92388 -0.38268
vn 0 -0.83147 -0.55557
vn 0 -0.83147 -0.55557
vn 0 -0.70711 -0.70711
vn 0 -0.70711 -0.70711
vn 0 -0.55557 -0.83147
vn 0 -0.55557 -0.83147
vn 0 -0.38268 -0.92388
vn 0 -0.38268 -0.92388
vn 0 -0.19509 -0.98079
vn 0 -0.19509 -0.98079
vn 0 0 -1
vn 0 0.19509 -0.98079
vn 0 0.19509 -0.98079
vn 0 0.38268 -0.92388
vn 0 0.38268 -0.92388
vn 0 0.55557 -0.83147
vn 0 0.55557 -0.83147
vn 0 0.70711 -0.70711
vn 0 0.70711 -0.70711
vn 0 0.83147 -0.55557
vn 0 0.83147 -0.55557
vn 0 0.92388 -0.38268
vn 0 0.92388 -0.38268
vn 0 0.98079 -0.19509
vn 0 0.98079 -0.19509
vn 0 1 0
vn 0 0.98079 0.19509
vn 0 0.98079 0.19509
vn -1 0 0
vn -1 -0 0
vn -1 0 0
vn -1 -0 0
vn -1 -0 0
vn -1 0 0
vn -1 -0 0
vn -1 -0 0
vn -1 -0 0
vn -1 -0 0
vn -1 0 0
vn -1 0 0
vn -1 0 0
vn -1 -0 0
vn 1 0 0
vn 1E-05 -1 -1E-05
vn 2E-05 -1 -2E-05
vn 0 1 0
vn 0 1 0
vn 1 -2E-05 0
vn 1 -2E-05 0
vn 1 -0 0
vn 1 -0 0
vn 1 -1E-05 0
vn 1 -1E-05 0
vn 1 -0 0
vn 1 -0 -0
vn 1 0 0
vn 1 -0 0
vn 1 0 1E-05
vn 1 0 -0
vn 1 -0 -0
vn 1 -0 0
vn 1 0 0
vn -1 -0 0
vn -1 -0 0
vn -1 0 -0
vn -1 0 -0
vn -1 0 -0
vn -1 0 -0
vn -1 0 -0
vn -1 -0 -0
vn -1 0 -0
vn -1 0 -0
vn 0 0.19961 0.97988
vn 0 0.19961 0.97988
vn 0 -0.19961 0.97987
vn 0 -0.19961 0.97987
vn 0 -0.19961 0.97988
vn 1 0 1E-05
vn 1 -0 1E-05
vn -1 0 -0
vn 0 0.19961 0.97988
vn 0 -0.19962 0.97987
vn -1 0 -0
vn -1 0 -0
vt 0.93936 0.30043
vt 0.94336 0.30043
vt 0.97133 0.53019
vt 0.93936 0
vt 0.97133 1E-05
vt 0.94336 0.21084
vt 0.93936 0.53019
vt 0.90532 0.53018
vt 0.90532 0.30042
vt 0.87052 0.53018
vt 0.87052 0.30042
vt 0.83629 0.53019
vt 0.83629 0.30043
vt 0.80396 0.53019
vt 0.80396 0.30043
vt 0.77477 0.5302
vt 0.77477 0.30044
vt 0.27447 0.2298
vt 0.27447 4E-05
vt 0.29973 2E-05
vt 0.29973 0.22978
vt 0.32918 1E-05
vt 0.32918 0.22977
vt 0.36168 0
vt 0.36168 0.22976
vt 0.39599 0
vt 0.39599 0.22976
vt 0.43078 0
vt 0.43078 0.22976
vt 0.43078 0.31935
vt 0.43496 0.31935
vt 0.46472 0.53019
vt 0.43496 0.22976
vt 0.93936 0.21084
vt 0.90532 0.21084
vt 0.90532 0
vt 0.87052 0.21084
vt 0.87052 0
vt 0.83629 0.21084
vt 0.83629 0
vt 0.80396 0.21085
vt 0.80396 1E-05
vt 0.77477 0.21086
vt 0.77477 2E-05
vt 0.27447 0.53022
vt 0.27447 0.31938
vt 0.29973 0.31937
vt 0.29973 0.53021
vt 0.32918 0.31936
vt 0.32918 0.53019
vt 0.36168 0.31935
vt 0.36168 0.53019
vt 0.39599 0.31935
vt 0.39599 0.53018
vt 0.43078 0.53018
vt 0.46472 1E-05
vt 0.4965 1E-05
vt 0.4965 0.5302
vt 0.52491 3E-05
vt 0.52491 0.53021
vt 0 0.53018
vt 0 0
vt 0.02461 0
vt 0.02461 0.53018
vt 0.05355 0
vt 0.05355 0.53018
vt 0.0857 0
vt 0.0857 0.53018
vt 0.11983 0
vt 0.11983 0.53018
vt 0.15464 0
vt 0.15464 0.53018
vt 0.18877 0
vt 0.18877 0.53018
vt 0.22092 0
vt 0.22092 0.53018
vt 0.24986 0
vt 0.24986 0.53018
vt 0.27447 0
vt 0.27447 0.53018
vt 0.52491 0.53018
vt 0.52491 0
vt 0.55384 0
vt 0.55384 0.53018
vt 0.586 0
vt 0.586 0.53018
vt 0.62013 0
vt 0.62013 0.53018
vt 0.65493 0
vt 0.65493 0.53018
vt 0.68907 0
vt 0.68907 0.53018
vt 0.72122 0
vt 0.72122 0.53018
vt 0.75016 0
vt 0.75016 0.53018
vt 0.77477 0
vt 0.77477 0.53018
vt 1 2E-05
vt 1 0.5302
vt 0.29669 0.53687
vt 0.33083 0.53022
vt 0.34823 0.70315
vt 0.26454 0.5499
vt 0.19166 0.62124
vt 0.21099 0.59292
vt 0.2356 0.56883
vt 0.17155 0.72018
vt 0.17155 0.68612
vt 0.17834 0.65271
vt 0.21099 0.81339
vt 0.19166 0.78507
vt 0.17834 0.75359
vt 0.29669 0.86944
vt 0.26454 0.8564
vt 0.2356 0.83748
vt 0.39976 0.86944
vt 0.36563 0.87608
vt 0.33083 0.87608
vt 0.48546 0.81339
vt 0.46085 0.83748
vt 0.43192 0.8564
vt 0.52491 0.72018
vt 0.51812 0.75359
vt 0.5048 0.78507
vt 0.5048 0.62124
vt 0.51812 0.65271
vt 0.52491 0.68612
vt 0.43192 0.5499
vt 0.46085 0.56883
vt 0.48546 0.59292
vt 0.36563 0.53022
vt 0.39976 0.53687
vt 0.75312 0.53687
vt 0.78527 0.5499
vt 0.70158 0.70315
vt 0.71899 0.53022
vt 0.6179 0.5499
vt 0.65005 0.53687
vt 0.68418 0.53022
vt 0.54501 0.62124
vt 0.56435 0.59292
vt 0.58896 0.56883
vt 0.52491 0.72018
vt 0.52491 0.68612
vt 0.5317 0.65271
vt 0.56435 0.81339
vt 0.54501 0.78507
vt 0.5317 0.75359
vt 0.65005 0.86944
vt 0.6179 0.8564
vt 0.58896 0.83748
vt 0.75312 0.86944
vt 0.71899 0.87608
vt 0.68418 0.87608
vt 0.83882 0.81339
vt 0.81421 0.83748
vt 0.78527 0.8564
vt 0.87826 0.72018
vt 0.87147 0.75359
vt 0.85816 0.78507
vt 0.85816 0.62124
vt 0.87147 0.65271
vt 0.87826 0.68612
vt 0.81421 0.56883
vt 0.83882 0.59292
vt 0.37498 0.31931
vt 0.37498 0.22973
vt 0.1576 0.61977
vt 0.09625 0.61977
vt 0.1576 0.53018
vt 0.09625 0.53018
vt 0.8818 0.53248
vt 0.87826 0.53022
vt 0.95764 0.53022
vt 0.95764 0.8237
vt 0.87826 0.8237
vt 0.8818 0.82144
vt 0.9087 0.79983
vt 0.93078 0.7735
vt 0.94719 0.74346
vt 0.95729 0.71086
vt 0.9607 0.67696
vt 0.95729 0.64306
vt 0.94719 0.61046
vt 0.93078 0.58042
vt 0.9087 0.55409
vt 0.06581 0.55405
vt 0.01687 0.53018
vt 0.09271 0.53244
vt 0.09625 0.53018
vt 0.00471 0.89731
vt 0.09625 1
vt 0.00472 0.99997
vt 0.01381 0.67692
vt 0.01722 0.64302
vt 0.04373 0.58038
vt 0.02732 0.61042
vt 0.01722 0.71082
vt 0.01687 0.82366
vt 0.02732 0.74342
vt 0.04373 0.77346
vt 0.06581 0.79979
vt 0.09271 0.8214
vt 0.09625 0.82366
vt 0.09625 0.82369
vt 0.00472 0.82366
vt 0.30799 0.22976
vt 0.97451 0.61128
vt 0.97451 0.74264
vt 0 0.74261
vt 0 0.61124
vt 0.09624 0.89734
vt 0.30799 0.31935
usemtl mat0
f 1/1/1 2/2/2 3/3/3
f 4/4/4 5/5/5 6/6/6
f 3/3/3 7/7/7 1/1/1
f 1/1/1 7/7/7 8/8/8
f 1/1/1 8/8/8 9/9/9
f 9/9/9 8/8/8 10/10/10
f 9/9/9 10/10/10 11/11/11
f 11/11/11 10/10/10 12/12/12
f 11/11/11 12/12/12 13/13/12
f 13/13/12 12/12/12 14/14/13
f 13/13/12 14/14/13 15/15/14
f 15/15/14 14/14/13 16/16/15
f 15/15/14 16/16/15 17/17/15
f 18/18/15 19/19/15 20/20/16
f 18/18/15 20/20/16 21/21/17
f 21/21/17 20/20/16 22/22/18
f 21/21/17 22/22/18 23/23/19
f 23/23/19 22/22/18 24/24/20
f 23/23/19 24/24/20 25/25/20
f 25/25/20 24/24/20 26/26/21
f 25/25/20 26/26/21 27/27/22
f 27/27/22 26/26/21 28/28/23
f 27/27/22 28/28/23 29/29/24
f 30/30/25 31/31/26 32/32/27
f 32/32/27 31/31/26 33/33/28
f 6/6/6 34/34/29 4/4/4
f 4/4/4 34/34/29 35/35/30
f 4/4/4 35/35/30 36/36/31
f 36/36/31 35/35/30 37/37/32
f 36/36/31 37/37/32 38/38/11
f 38/38/11 37/37/32 39/39/12
f 38/38/11 39/39/12 40/40/33
f 40/40/33 39/39/12 41/41/13
f 40/40/33 41/41/13 42/42/13
f 42/42/13 41/41/13 43/43/15
f 42/42/13 43/43/15 44/44/15
f 45/45/15 46/46/15 47/47/16
f 45/45/15 47/47/16 48/48/16
f 48/48/16 47/47/16 49/49/34
f 48/48/16 49/49/34 50/50/34
f 50/50/34 49/49/34 51/51/35
f 50/50/34 51/51/35 52/52/20
f 52/52/20 51/51/35 53/53/36
f 52/52/20 53/53/36 54/54/37
f 54/54/37 53/53/36 30/30/25
f 54/54/37 30/30/25 55/55/38
f 55/55/38 30/30/25 32/32/27
f 29/29/24 28/28/23 33/33/28
f 33/33/28 28/28/23 56/56/39
f 33/33/28 56/56/39 32/32/27
f 32/32/27 56/56/39 57/57/40
f 32/32/27 57/57/40 58/58/41
f 58/58/41 57/57/40 59/59/42
f 58/58/41 59/59/42 60/60/42
f 61/61/42 62/62/42 63/63/43
f 61/61/42 63/63/43 64/64/43
f 64/64/43 63/63/43 65/65/44
f 64/64/43 65/65/44 66/66/45
f 66/66/45 65/65/44 67/67/46
f 66/66/45 67/67/46 68/68/47
f 68/68/47 67/67/46 69/69/48
f 68/68/47 69/69/48 70/70/49
f 70/70/49 69/69/48 71/71/50
f 70/70/49 71/71/50 72/72/51
f 72/72/51 71/71/50 73/73/52
f 72/72/51 73/73/52 74/74/53
f 74/74/53 73/73/52 75/75/54
f 74/74/53 75/75/54 76/76/55
f 76/76/55 75/75/54 77/77/56
f 76/76/55 77/77/56 78/78/56
f 78/78/56 77/77/56 79/79/57
f 78/78/56 79/79/57 80/80/58
f 81/81/58 82/82/57 83/83/59
f 81/81/58 83/83/59 84/84/60
f 84/84/60 83/83/59 85/85/61
f 84/84/60 85/85/61 86/86/62
f 86/86/62 85/85/61 87/87/63
f 86/86/62 87/87/63 88/88/64
f 88/88/64 87/87/63 89/89/65
f 88/88/64 89/89/65 90/90/66
f 90/90/66 89/89/65 91/91/67
f 90/90/66 91/91/67 92/92/68
f 92/92/68 91/91/67 93/93/69
f 92/92/68 93/93/69 94/94/70
f 94/94/70 93/93/69 95/95/71
f 94/94/70 95/95/71 96/96/71
f 96/96/71 95/95/71 97/97/72
f 96/96/71 97/97/72 98/98/73
f 99/99/73 100/100/72 3/3/3
f 99/99/73 3/3/3 5/5/5
f 5/5/5 3/3/3 2/2/2
f 5/5/5 2/2/2 6/6/6
f 101/101/74 102/102/74 103/103/74
f 101/101/74 103/103/74 104/104/75
f 105/105/76 106/106/77 103/103/74
f 103/103/74 106/106/77 107/107/78
f 103/103/74 107/107/78 104/104/75
f 108/108/79 109/109/79 103/103/74
f 103/103/74 109/109/79 110/110/76
f 103/103/74 110/110/76 105/105/76
f 111/111/74 112/112/80 103/103/74
f 103/103/74 112/112/80 113/113/74
f 103/103/74 113/113/74 108/108/79
f 114/114/77 115/115/77 103/103/74
f 103/103/74 115/115/77 116/116/76
f 103/103/74 116/116/76 111/111/74
f 117/117/81 118/118/82 103/103/74
f 103/103/74 118/118/82 119/119/83
f 103/103/74 119/119/83 114/114/77
f 120/120/80 121/121/82 103/103/74
f 103/103/74 121/121/82 122/122/84
f 103/103/74 122/122/84 117/117/81
f 123/123/80 124/124/80 103/103/74
f 103/103/74 124/124/80 125/125/79
f 103/103/74 125/125/79 120/120/80
f 126/126/85 127/127/74 103/103/74
f 103/103/74 127/127/74 128/128/80
f 103/103/74 128/128/80 123/123/80
f 129/129/86 130/130/74 103/103/74
f 103/103/74 130/130/74 131/131/87
f 103/103/74 131/131/87 126/126/85
f 102/102/74 132/132/76 103/103/74
f 103/103/74 132/132/76 133/133/77
f 103/103/74 133/133/77 129/129/86
f 134/134/88 135/135/88 136/136/88
f 134/134/88 136/136/88 137/137/88
f 138/138/88 139/139/88 136/136/88
f 136/136/88 139/139/88 140/140/88
f 136/136/88 140/140/88 137/137/88
f 141/141/88 142/142/88 136/136/88
f 136/136/88 142/142/88 143/143/88
f 136/136/88 143/143/88 138/138/88
f 144/144/88 145/145/88 136/136/88
f 136/136/88 145/145/88 146/146/88
f 136/136/88 146/146/88 141/141/88
f 147/147/88 148/148/88 136/136/88
f 136/136/88 148/148/88 149/149/88
f 136/136/88 149/149/88 144/144/88
f 150/150/88 151/151/88 136/136/88
f 136/136/88 151/151/88 152/152/88
f 136/136/88 152/152/88 147/147/88
f 153/153/88 154/154/88 136/136/88
f 136/136/88 154/154/88 155/155/88
f 136/136/88 155/155/88 150/150/88
f 156/156/88 157/157/88 136/136/88
f 136/136/88 157/157/88 158/158/88
f 136/136/88 158/158/88 153/153/88
f 159/159/88 160/160/88 136/136/88
f 136/136/88 160/160/88 161/161/88
f 136/136/88 161/161/88 156/156/88
f 162/162/88 163/163/88 136/136/88
f 136/136/88 163/163/88 164/164/88
f 136/136/88 164/164/88 159/159/88
f 135/135/88 165/165/88 136/136/88
f 136/136/88 165/165/88 166/166/88
f 136/136/88 166/166/88 162/162/88
f 31/31/26 167/167/89 33/33/28
f 33/33/28 167/167/89 168/168/90
f 169/169/91 170/170/6 171/171/92
f 171/171/92 170/170/6 172/172/2
f 173/173/93 174/174/94 175/175/95
f 176/176/96 177/177/97 178/178/98
f 178/178/98 179/179/99 176/176/96
f 176/176/96 179/179/99 180/180/100
f 176/176/96 180/180/100 181/181/101
f 181/181/101 182/182/102 176/176/96
f 176/176/96 182/182/102 183/183/103
f 175/175/95 183/183/103 184/184/104
f 175/175/95 184/184/104 185/185/105
f 185/185/105 186/186/106 175/175/95
f 175/175/95 186/186/106 187/187/107
f 175/175/95 187/187/107 173/173/93
f 188/188/74 189/189/74 190/190/74
f 190/190/74 189/189/74 191/191/74
f 192/192/15 193/193/15 194/194/15
f 195/195/108 189/189/74 196/196/109
f 188/188/74 197/197/74 189/189/74
f 189/189/74 197/197/74 198/198/74
f 189/189/74 198/198/74 196/196/109
f 195/195/110 199/199/111 200/200/112
f 200/200/112 199/199/111 201/201/113
f 200/200/112 201/201/113 202/202/114
f 202/202/114 203/203/115 200/200/112
f 200/200/112 203/203/115 204/204/116
f 200/200/112 204/204/116 205/205/117
f 206/206/118 192/192/118 207/207/119
f 167/167/120 208/208/121 168/168/122
f 209/209/123 210/210/124 183/183/103
f 211/211/125 212/212/125 195/195/125
f 192/192/15 213/213/15 193/193/15
f 206/206/118 213/213/126 192/192/118
f 167/167/120 214/214/127 208/208/121
f 210/210/124 176/176/96 183/183/103
f 183/183/103 175/175/95 209/209/123
f 212/212/128 189/189/128 195/195/128
f 195/195/129 200/200/129 211/211/129
# Vertices: 214, normals: 129, texture coordinates: 214, faces: 196

