# File generated by ImageToStl.com - Free Image and 3D model conversion tools

mtllib wide_angle_camera.mtl

o obj1
v -0.02441035 -0.0170623 0.01911681
v -0.02441035 0.01706242 -0.03182196
v -0.02441035 -0.0170623 -0.03182196
v -0.02126591 -0.0198788 -0.033957
v -0.02441035 -0.0170623 -0.033957
v -0.02126591 -0.0170623 -0.033957
v -0.02126591 0.01987898 -0.033957
v -0.02441035 0.01987898 -0.03182196
v -0.02126591 0.01987898 -0.03182196
v 0.00066306 -0.01750713 -0.01450896
v -0.00482933 -0.01750713 -0.01450896
v -0.00482933 -0.01750713 -0.01650851
v -0.02126591 0.01987898 0.01911681
v -0.02441035 0.01706242 0.01911681
v -0.02126591 0.01706242 0.01911681
v -0.02441035 0.01987898 0.01911681
v -0.02126591 0.01987898 0.00547153
v 0.00371052 0.01500505 0.01017773
v 0.00066306 0.01016998 0.01501464
v 0.00371052 0.01016998 0.01501494
v 0.00371052 0.01500505 -0.01017773
v 0.00066306 0.01016998 -0.01501464
v 0.00066306 0.01500505 -0.01017773
v -0.00482933 0.01750725 -0.01650851
v -0.02126591 0.01750725 -0.01450896
v -0.00482933 0.01750725 -0.01450896
v -0.02126591 0.01550704 -0.03150981
v -0.00482933 0.01750707 -0.02950996
v -0.00482933 0.01550704 -0.03150981
v 0.00066306 0.01500505 -0.01017773
v 0.00066306 0.01550704 -0.01650899
v 0.00066306 0.01750725 -0.01450896
v 0.00066306 -0.01550692 0.01650899
v 0.00066306 -0.01500493 0.01017773
v 0.00066306 -0.0101698 0.01501464
v -0.00482933 -0.01750713 -0.02950996
v -0.00482933 -0.01550692 -0.03150981
v -0.00482933 -0.01550692 -0.02950996
v 0.00066306 0.01750725 -0.01450896
v -0.00482933 0.01550704 -0.01650851
v -0.00482933 0.01750707 -0.02950996
v -0.00482933 0.01550704 -0.02950996
v -0.00482933 0.01550704 -0.03150981
v -0.00482933 -0.01750713 -0.02950996
v -0.02126591 -0.01550692 -0.03150981
v -0.00482933 -0.01550692 -0.03150981
v -0.02126591 0.01550704 -0.03150981
v -0.00482933 0.01550704 -0.03150981
v 0.00066306 0.01550704 0.01650899
v -0.00482933 -0.01550692 0.01650851
v 0.00066306 -0.01550692 0.01650899
v -0.00482933 0.01750725 -0.01450896
v -0.00482933 0.01550704 -0.01650851
v -0.00482933 0.01750725 -0.01650851
v 0.00066306 -0.01550692 -0.01650899
v -0.00482933 0.01550704 -0.01650851
v 0.00066306 0.01550704 -0.01650899
v -0.02126591 0.01550704 0.01650851
v -0.00482933 0.01750725 0.01450896
v -0.02126591 0.01750725 0.01450896
v -0.00482933 0.01550704 0.01650851
v -0.02126591 -0.01550692 0.01650851
v 0.00371052 0.01016998 0.01501494
v 0.00066306 -0.0101698 0.01501464
v 0.00371052 -0.0101698 0.01501494
v 0.00371052 -0.0101698 -0.01501494
v 0.00066306 0.01016998 -0.01501464
v 0.00371052 0.01016998 -0.01501494
v -0.02441035 0.01706242 0.01911681
v -0.02441035 0.01987898 -0.03182196
v -0.00482933 -0.01750713 0.01450896
v -0.02126591 -0.0170623 0.01911681
v -0.02441035 -0.0198788 0.01911681
v -0.02126591 -0.0198788 0.01911681
v -0.02441035 -0.0170623 0.01911681
v 0.00066306 0.01016998 0.01501464
v 0.00066306 -0.01750713 0.01450896
v 0.00066306 0.01750725 0.01450896
v 0.00066306 -0.0101698 -0.01501464
v 0.00066306 0.01016998 -0.01501464
v -0.02126591 0.01706242 -0.033957
v -0.02441035 0.01987898 -0.033957
v -0.02126591 0.01987898 -0.033957
v -0.02441035 0.01706242 -0.033957
v -0.02441035 0.01706242 -0.033957
v -0.02441035 -0.0170623 -0.033957
v -0.02441035 -0.0198788 -0.03182196
v -0.02441035 -0.0198788 -0.033957
v 0.00066306 0.01500505 0.01017773
v 0.00066306 0.01550704 0.01650899
v -0.00482933 0.01750725 0.01450896
v 0.00066306 0.01750725 0.01450896
v 0.00066306 -0.01750713 0.01450896
v 0.00066306 -0.01550692 -0.01650899
v 0.00066306 -0.01500493 -0.01017773
v 0.00066306 -0.01750713 -0.01450896
v 0.00066306 0.01750725 0.01450896
v -0.02126591 -0.01750713 -0.01650851
v -0.00482933 -0.01750713 0.01450896
v -0.02126591 -0.01750713 -0.01450896
v -0.02126591 0.01750725 0.01450896
v 0.00066306 0.01500505 0.01017773
v 0.00371052 -0.01500505 0.01017773
v 0.00066306 -0.01500493 -0.01017773
v 0.00371052 -0.01500475 -0.01017773
v -0.02441035 0.01987898 -0.033957
v -0.02126591 -0.0198788 0.00547153
v -0.02441035 -0.0198788 0.01911681
v -0.02441035 -0.0198788 -0.03182196
v 0.00371052 -0.01500475 -0.01017773
v 0.00371052 -0.0101698 -0.01501494
v 0.00371052 0.01500505 -0.01017773
v -0.02126591 -0.0198788 -0.03182196
v -0.02441035 -0.0198788 -0.033957
v -0.00482933 -0.01550692 -0.01650851
v -0.00482933 -0.01750713 -0.01650851
v -0.02126591 0.01750707 -0.02950996
v -0.02126591 0.01750725 -0.01650851
v 0.00371052 -0.01500505 0.01017773
v 0.00066306 -0.01500493 0.01017773
v 0.00066306 -0.0101698 -0.01501464
v -0.02126591 0.01750707 -0.02950996
v -0.02126591 0.01706242 -0.033957
v -0.02126591 0.01987898 -0.033957
v -0.02126591 -0.01550692 -0.03150981
v -0.02126591 0.01550704 -0.03150981
v -0.02126591 -0.01750713 -0.02950996
v -0.02126591 -0.0170623 -0.033957
v -0.02126591 -0.0198788 -0.03182196
v -0.02126591 -0.0198788 -0.033957
v -0.02126591 -0.01750713 -0.01450896
v -0.02126591 -0.01750713 -0.01650851
v -0.02126591 -0.01750713 0.01450896
v -0.02126591 -0.0198788 0.00547153
v -0.02126591 -0.0170623 0.01911681
v -0.02126591 -0.0198788 0.01911681
v -0.02126591 0.01550704 0.01650851
v -0.02126591 -0.01550692 0.01650851
v -0.02126591 0.01750725 0.01450896
v -0.02126591 0.01706242 0.01911681
v -0.02126591 0.01987898 0.00547153
v -0.02126591 0.01987898 0.01911681
v -0.02126591 0.01750725 -0.01450896
v -0.02126591 0.01987898 -0.03182196
v -0.02126591 0.01750725 -0.01650851
v -0.02441035 -0.0198788 0.01911681
v -0.02441035 0.01987898 -0.033957
v -0.00482933 -0.01550692 -0.01650851
v -0.02441035 0.01987898 0.01911681
v -0.02126591 0.01987898 0.01911681
v 0.00371052 0.01016998 -0.01501494
v 0.00066306 -0.01750713 0.01450896
v 0.00066306 0.01550704 -0.01650899
v -0.02126591 -0.01750713 -0.02950996
v 0.00066306 0.01016998 0.01501464
v -0.02441035 0.01987898 0.01911681
v -0.02126591 -0.01750713 0.01450896
v -0.02126591 -0.01750713 0.01450896
v 0.00066306 -0.01500493 0.01017773
v -0.02126591 -0.0198788 0.01911681
v 0.00371052 0.01016998 -0.01501494
v 0.00371052 0.01500505 0.01017773
v 0.00371052 -0.01500505 0.01017773
v 0.00371052 0.01016998 0.01501494
v 0.00371052 -0.0101698 0.01501494
vn -1 0 0
vn 0 0 -1
vn 0 1 0
vn 0 -1 0
vn 0 0 1
vn -8E-05 0.70727 0.70695
vn 1E-05 0.70724 -0.70697
vn 0 0.70707 -0.70714
vn 1 0 0
vn 0 0.70699 -0.70723
vn 0 -0.70704 -0.70717
vn -9E-05 0 1
vn -9E-05 0 -1
vn 0 0.70699 0.70723
vn -0.00011 0 1
vn -0.00011 0 -1
vn 0 -0.70699 0.70723
vn 0 -0.70699 0.70723
vn -6E-05 0.70707 0.70714
vn 1 -0 0
vn 1 0 0
vn 1E-05 1 0
vn 5E-05 -1 -1E-05
vn 0 1 -1E-05
vn -3E-05 -0.70724 0.70697
vn -8E-05 -0.70728 -0.70694
vn 1 0 0
vn 1 0 0
vn -9E-05 0 -1
vn 0.24931 -0.68474 -0.68481
vn 1E-05 0.70724 0.70697
vn -8E-05 0.70727 -0.70695
vn 0 0.70707 -0.70714
vn -6E-05 0.70707 -0.70714
vn 0 -0.70704 -0.70717
vn 0 0.70699 0.70723
vn -0.00011 0 1
vn 0 -0.70699 0.70723
vn -6E-05 -0.70707 0.70714
vn 0 0.70699 0.70723
vn 1 0 0
vn 1 -0 0
vn -4E-05 -1 0
vn 0 1 -1E-05
vn -8E-05 -0.70726 0.70696
vn 4E-05 -0.70724 -0.70697
vn 1 -0 0
vn 1 -0 0
vt 0.68074 0.43881
vt 0.37787 0.01765
vt 0.68074 0.01765
vt 0.6738 0.67133
vt 0.64678 0.65471
vt 0.67466 0.65487
vt 0.91236 0
vt 0.94027 0.01765
vt 0.91236 0.01765
vt 0.90436 0.29234
vt 0.85566 0.29241
vt 0.85511 0.28072
vt 0.97209 0.46222
vt 1 0.48551
vt 0.97209 0.48551
vt 0.94027 0.43881
vt 0.91236 0.32599
vt 0.99979 0.03999
vt 0.97274 0
vt 0.99979 0
vt 0.99979 0.20829
vt 0.97274 0.24828
vt 0.97274 0.20829
vt 0.20699 0.56284
vt 0.35287 0.57937
vt 0.20699 0.57937
vt 0.35287 0.43881
vt 0.20699 0.45534
vt 0.20699 0.43881
vt 0.58973 0.70761
vt 0.64592 0.71176
vt 0.62817 0.7283
vt 0.35287 0.45534
vt 0.40906 0.45949
vt 0.36613 0.49947
vt 0.13314 0.43881
vt 0.15089 0.45534
vt 0.13314 0.45534
vt 0.15824 0.57937
vt 0.20699 0.56284
vt 0.13314 0.7283
vt 0.13314 0.71176
vt 0.15089 0.71176
vt 0.85152 0.20471
vt 0.70574 0.18151
vt 0.85149 0.18132
vt 0.71377 0.00018
vt 0.85952 0
vt 0.70574 0.72704
vt 0.75449 0.98346
vt 0.70574 0.98346
vt 0 0.7283
vt 0.01775 0.71176
vt 0.01775 0.7283
vt 0.90433 0.26896
vt 0.86366 0.0877
vt 0.91236 0.08763
vt 0.90037 0.72704
vt 0.75449 0.71051
vt 0.90037 0.71051
vt 0.75449 0.72704
vt 0.90037 0.98346
vt 0.92742 0.91865
vt 0.90037 0.75048
vt 0.92742 0.75048
vt 0.9673 0.11891
vt 0.94572 0
vt 0.97274 0
vt 0.37787 0.43881
vt 0.35287 0.01765
vt 0.75449 1
vt 0.97209 0.76765
vt 1 0.79093
vt 0.97209 0.79093
vt 1 0.76765
vt 0.36613 0.66764
vt 0.70574 1
vt 0.70574 0.71051
vt 0.63266 0.49947
vt 0.63266 0.66764
vt 0.6851 0.45543
vt 0.65808 0.43881
vt 0.68596 0.43897
vt 0.65722 0.45527
vt 0.37787 0
vt 0.68074 0
vt 0.70574 0.01765
vt 0.70574 0
vt 0.40906 0.70761
vt 0.35287 0.71176
vt 0.20699 0.81928
vt 0.15824 0.81928
vt 0.91236 0.46198
vt 0.64592 0.45534
vt 0.58973 0.45949
vt 0.62817 0.43881
vt 0.37062 0.7283
vt 0.70936 0.2809
vt 0.86366 0.46204
vt 0.70991 0.29259
vt 0.35287 0.81928
vt 0.97274 0.03999
vt 0.97274 0.29446
vt 0.94027 0.17546
vt 0.9673 0.17546
vt 0.35287 0
vt 0.68283 0.9019
vt 0.65808 0.98153
vt 0.64641 0.68366
vt 0.70574 0.50222
vt 0.74865 0.46222
vt 0.97209 0.50222
vt 0.67429 0.68382
vt 0.64592 0.67117
vt 0.01775 0.45534
vt 0.01775 0.43881
vt 0.35287 0.45534
vt 0.35287 0.56284
vt 0.92742 0.71051
vt 0.90037 0.71051
vt 0.94027 0.11891
vt 0.33182 0.03677
vt 0.32787 0
vt 0.35287 0
vt 0.0388 0.02023
vt 0.31407 0.02023
vt 0.02105 0.03677
vt 0.025 0
vt 0 0.01765
vt 0 0
vt 0.02105 0.16079
vt 0.02105 0.14426
vt 0.02105 0.40071
vt 0 0.32599
vt 0.025 0.43881
vt 0 0.43881
vt 0.31407 0.41724
vt 0.0388 0.41724
vt 0.33182 0.40071
vt 0.32787 0.43881
vt 0.35287 0.32599
vt 0.33182 0.16079
vt 0.35287 0.01765
vt 0.33182 0.14426
vt 0.70574 0.43881
vt 0.94027 0
vt 0.85562 0.26902
vt 1 0.46222
vt 0.91236 0.43881
vt 0.99979 0.24828
vt 0.37062 0.43881
vt 0.15824 0.56283
vt 0.70577 0.20489
vt 0.90037 0.91865
vt 0.90037 1
vt 0.71791 0.46222
vt 0.94572 0.29446
vt 0.68596 0.98169
vt 0.92918 0.46222
vt 0.97209 0.67051
vt 0.70574 0.67051
vt 0.92918 0.71051
vt 0.74865 0.71051
usemtl mat0
f 1/1/1 2/2/1 3/3/1
f 4/4/2 5/5/2 6/6/2
f 7/7/3 8/8/3 9/9/3
f 10/10/4 11/11/4 12/12/4
f 13/13/5 14/14/5 15/15/5
f 16/16/3 17/17/3 8/8/3
f 18/18/6 19/19/6 20/20/6
f 21/21/7 22/22/7 23/23/7
f 24/24/3 25/25/3 26/26/3
f 27/27/8 28/28/8 29/29/8
f 30/30/9 31/31/9 32/32/9
f 33/33/9 34/34/9 35/35/9
f 36/36/9 37/37/9 38/38/9
f 39/39/10 40/40/10 26/26/10
f 41/41/9 42/42/9 43/43/9
f 44/44/11 45/45/11 46/46/11
f 38/38/9 43/43/9 42/42/9
f 46/46/2 47/47/2 48/48/2
f 49/49/12 50/50/12 51/51/12
f 52/52/9 53/53/9 54/54/9
f 55/55/13 56/56/13 57/57/13
f 58/58/14 59/59/14 60/60/14
f 61/61/5 62/62/5 50/50/5
f 63/63/15 64/64/15 65/65/15
f 66/66/16 67/67/16 68/68/16
f 69/69/1 70/70/1 2/2/1
f 62/62/17 71/71/17 50/50/17
f 72/72/5 73/73/5 74/74/5
f 15/15/5 75/75/5 72/72/5
f 76/76/9 33/33/9 35/35/9
f 77/77/18 50/50/18 71/71/18
f 78/78/19 61/61/19 49/49/19
f 79/79/9 31/31/9 80/80/9
f 81/81/2 82/82/2 83/83/2
f 6/6/2 84/84/2 81/81/2
f 3/3/1 85/85/1 86/86/1
f 87/87/1 86/86/1 88/88/1
f 89/89/9 90/90/9 76/76/9
f 39/39/3 91/91/3 92/92/3
f 93/93/4 11/11/4 10/10/4
f 94/94/20 95/95/20 96/96/20
f 34/34/21 96/96/21 95/95/21
f 89/89/9 32/32/9 97/97/9
f 11/11/4 98/98/4 12/12/4
f 99/99/4 100/100/4 11/11/4
f 26/26/3 101/101/3 91/91/3
f 21/21/22 102/102/22 18/18/22
f 103/103/23 104/104/23 105/105/23
f 2/2/1 106/106/1 85/85/1
f 107/107/4 108/108/4 109/109/4
f 110/110/9 111/111/9 112/112/9
f 113/113/4 114/114/4 4/4/4
f 115/115/9 42/42/9 53/53/9
f 53/53/9 41/41/9 54/54/9
f 98/98/4 44/44/4 12/12/4
f 116/116/9 38/38/9 115/115/9
f 24/24/24 117/117/24 118/118/24
f 119/119/25 64/64/25 120/120/25
f 105/105/26 121/121/26 66/66/26
f 122/122/9 123/123/9 124/124/9
f 125/125/9 123/123/9 126/126/9
f 127/127/9 128/128/9 125/125/9
f 127/127/27 129/129/27 130/130/27
f 131/131/9 129/129/9 132/132/9
f 133/133/28 134/134/28 131/131/28
f 133/133/9 135/135/9 136/136/9
f 137/137/9 135/135/9 138/138/9
f 139/139/9 140/140/9 137/137/9
f 139/139/9 141/141/9 142/27/9
f 143/142/9 144/143/9 141/141/9
f 122/122/9 144/143/9 145/144/9
f 146/145/1 3/3/1 87/87/1
f 1/1/1 69/69/1 2/2/1
f 4/4/2 114/114/2 5/5/2
f 7/7/3 147/146/3 8/8/3
f 148/147/29 55/55/29 12/12/29
f 55/55/30 10/10/30 12/12/30
f 13/13/5 149/148/5 14/14/5
f 150/149/3 17/17/3 16/16/3
f 17/17/3 9/9/3 8/8/3
f 18/18/31 102/102/31 19/19/31
f 21/21/32 151/150/32 22/22/32
f 24/24/3 118/118/3 25/25/3
f 27/27/33 117/117/33 28/28/33
f 30/30/9 80/80/9 31/31/9
f 33/33/20 152/151/20 34/34/20
f 39/39/34 153/152/34 40/40/34
f 44/44/35 154/153/35 45/45/35
f 38/38/9 37/37/9 43/43/9
f 46/46/2 45/45/2 47/47/2
f 49/49/12 61/61/12 50/50/12
f 55/55/13 148/147/13 56/56/13
f 58/58/36 61/61/36 59/59/36
f 61/61/5 58/58/5 62/62/5
f 63/63/37 155/154/37 64/64/37
f 66/66/16 121/121/16 67/67/16
f 69/69/1 156/27/1 70/70/1
f 62/62/38 157/155/38 71/71/38
f 72/72/5 75/75/5 73/73/5
f 15/15/5 14/14/5 75/75/5
f 76/76/9 90/90/9 33/33/9
f 77/77/39 51/51/39 50/50/39
f 78/78/40 59/59/40 61/61/40
f 79/79/9 94/94/9 31/31/9
f 81/81/2 84/84/2 82/82/2
f 6/6/2 5/5/2 84/84/2
f 3/3/1 2/2/1 85/85/1
f 87/87/1 3/3/1 86/86/1
f 89/89/41 97/97/41 90/90/41
f 39/39/3 26/26/3 91/91/3
f 93/93/4 99/99/4 11/11/4
f 94/94/9 79/79/9 95/95/9
f 34/34/9 152/151/9 96/96/9
f 89/89/42 30/30/42 32/32/42
f 11/11/4 100/100/4 98/98/4
f 99/99/4 158/156/4 100/100/4
f 26/26/3 25/25/3 101/101/3
f 21/21/22 23/23/22 102/102/22
f 103/103/43 159/157/43 104/104/43
f 2/2/1 70/70/1 106/106/1
f 109/109/4 113/113/4 107/107/4
f 107/107/4 160/158/4 108/108/4
f 111/111/9 161/159/9 112/112/9
f 112/112/9 162/160/9 163/161/9
f 162/160/9 164/162/9 163/161/9
f 164/162/9 165/163/9 163/161/9
f 163/161/9 110/110/9 112/112/9
f 113/113/4 109/109/4 114/114/4
f 115/115/9 38/38/9 42/42/9
f 53/53/9 42/42/9 41/41/9
f 98/98/4 154/153/4 44/44/4
f 116/116/9 36/36/9 38/38/9
f 24/24/44 28/28/44 117/117/44
f 119/119/45 65/65/45 64/64/45
f 105/105/46 104/104/46 121/121/46
f 122/122/9 126/126/9 123/123/9
f 125/125/9 128/128/9 123/123/9
f 127/127/9 130/130/9 128/128/9
f 127/127/9 132/132/9 129/129/9
f 131/131/9 134/134/9 129/129/9
f 133/133/9 136/136/9 134/134/9
f 133/133/9 138/138/9 135/135/9
f 137/137/9 140/140/9 135/135/9
f 139/139/9 142/27/9 140/140/9
f 139/139/47 143/142/47 141/141/47
f 143/142/9 145/144/9 144/143/9
f 122/122/48 124/124/48 144/143/48
f 146/145/1 1/1/1 3/3/1
# Vertices: 165, normals: 48, texture coordinates: 163, faces: 148

